<svg xmlns="http://www.w3.org/2000/svg" width="256" height="256" preserveAspectRatio="xMidYMid" xmlns:v="https://vecta.io/nano"><path d="M0 222.99C0 241.223 14.78 256 33.01 256H222.99c18.232 0 33.01-14.78 33.01-33.01V33.01C256 14.777 241.22 0 222.99 0H33.01C14.777 0 0 14.78 0 33.01V222.99z" fill="#563d7c"/><path d="M106.158 113.238V76.985h31.912c3.04 0 5.97.253 8.792.76s5.32 1.41 7.49 2.714 3.908 3.112 5.2 5.427 1.954 5.282 1.954 8.9c0 6.513-1.954 11.216-5.86 14.11s-8.9 4.342-14.98 4.342h-34.517zM72.075 50.5v155h75.112c6.947 0 13.713-.868 20.298-2.605s12.446-4.414 17.584-8.032 9.226-8.285 12.265-14.002 4.56-12.482 4.56-20.298c0-9.697-2.352-17.982-7.055-24.856s-11.83-11.686-21.383-14.436c6.947-3.33 12.193-7.598 15.74-12.808s5.32-11.723 5.32-19.538c0-7.236-1.194-13.315-3.582-18.235s-5.753-8.864-10.095-11.83-9.552-5.102-15.63-6.404-12.808-1.954-20.19-1.954h-72.94zm34.083 128.515v-42.55h37.122c7.38 0 13.315 1.7 17.8 5.102s6.73 9.08 6.73 17.04c0 4.052-.687 7.38-2.062 9.986s-3.22 4.667-5.536 6.187-4.993 2.605-8.032 3.256-6.223.977-9.552.977h-36.47z" fill="#fff"/></svg>