<svg xmlns="http://www.w3.org/2000/svg" width="256" height="380" preserveAspectRatio="xMidYMid" xmlns:v="https://vecta.io/nano"><path d="M255.846 364.17c0 8.577-57.26 15.53-127.896 15.53S.055 372.746.055 364.17s67.17-15.53 127.896-15.53c72.286 0 127.896 6.95 127.896 15.53" fill="#1a4658"/><path d="M247.93 252.11c-3.958 0-8.222-1.827-11.268-15.835s-7.612-28.32-7.612-28.32c4.873 0 7.612-2.132 7.612-2.132-3.35-1.523-10.658-6.7-15.53-13.094s-17.358-16.75-17.358-16.75v-20.706c0-14.008 8.984-24.97 8.984-24.97-6.1 0-8.984 5.48-8.984 5.48v-29.538c0-29.233 14.768-42.326 14.768-42.326-4.568-.304-7.612 1.827-7.612 1.827 2.132-21.62 8.755-28.015 8.755-28.015-24.36-6.395-37.95 7.917-37.95 7.917-2.74-13.093 7.975-20.71 7.975-20.71-12.485-2.74-22.8.914-22.8.914C166.9 6.67 174.526.27 174.526.27c-38.064 0-59.677 28.62-59.677 28.62-1.522-12.18 1.83-22.85 1.83-22.85-36.845 15.53-46.587 49.923-46.587 49.923-2.436-5.785-2.74-18.92-2.74-18.92S52.126 62.55 49.386 80.2s2.436 68.364 2.436 68.364-2.435-3.044-7.612-3.653c0 0 5.48 6.09 5.48 19.794 0 0-2.132-1.827-5.786-.914 0 0 5.785 5.176 6.395 14.007 0 0-6.7 4.568-10.354 9.136 0 0-5.786.304-8.83 1.218 0 0 4.873 2.74 5.786 5.177 0 0-14.313 14.617-21.62 26.492 0 0 6.395-3.958 10.963-2.74 0 0-10.05 12.18-13.4 32.278 0 0 4.872-2.435 7.004-1.217 0 0-6.09 12.79-6.395 26.188l-6.7 3.96 5.177 3.654s-3.96 16.443-4.873 25.883c0 0 3.045-3.045 5.48-3.958 0 0 3.35 7.917 7.918 14.007S35.38 329.15 41.47 329.15l11.446-.446c-1.42 6.126-4.22 11.32-10.124 11.593l-.655 1.05a6.87 6.87 0 0 0-.364-.017c-.117 1.79-3.727 2.11-4.72 3.35-3.018 3.765-5.32 8.938-6.852 13.55-1.123 3.38-.592 3.38-1.37 6.852-.255 1.136-1.434 2.35-1.827 3.5 3.288-1.104 12.4-1.842 17.2-2.194l.08 4.248s.79.736 2.102 1.27c.045-.01.09-.02.144-.017.445.036.875.102 1.295.206 7.203-.644 12.218.57 20.566-.122 1.624-.193 3.148-.422 4.57-1.23.404-1.208.46-1.282.65-2.842.04-.278.04-.564.108-.903l.386-.06c.05-.02.126-.035.298-.04.035-.01.066-.027.106-.03l.396-.034c.09-.034.178-.043.256-.022 1.51-.135 3.937-.263 5.448-.345 4.91-.008 11.372.557 11.372.557.4-5.504.8-14.045 9.707-38.94l2.208-1.37s27.357 9.64 52.74-.4c2.01 4.944 8.508 21.562 9.53 32.038.874 1.228.777 2.786.806 4.437.025 1.397.142 2.795.18 4.188.913-.124 4.21-.528 8.37-.52l5.448.345c.08-.02.165-.012.256.022l.396.034c.04.003.07.02.106.03.17.007.25.023.298.04l.385.06c.067.34.067.625.108.903.2 1.56.244 1.634.648 2.842.13.074.262.138.394.204 4.545-.577 9.15-.682 13.725-.466 3.597.17 7.133.846 10.674 1.5.001.033.003.068.003.102.357.038.706.063 1.054.086 1.9.34 3.805.656 5.722.863a149.34 149.34 0 0 0-.027-6.337c3.814.182 9.334.942 11.65 1.28.918.22 1.664.356 2.447.524l.315.096c-.004-.01-.008-.02-.012-.027.786.176 1.634.4 2.753.79-.17-2.06-.155-2.017-.428-4.6-.2-1.997-1.642-8.066-4.322-10.57 0 0 2.92 1.262 3.81 1.765-2.878-3.9-4.278-9.475-13.32-13.32 0 0 1.652-.78 3.162-.975-1.578-.973-2.783-1.355-4.38-1.24.543-1.54 2.93-5.43 4.935-5.93 0 0-1.23-.855-3.24-.194-.747.392-1.473.812-2.178 1.31-.267.188-.656-.007-.735-.3-.632-2.338-1.043-4.714-1.416-7.1 18.223-.66 20.78-10.01 20.78-10.01 1.523 1.22 1.522 3.958 1.522 3.958 7.917-10.354 7.004-20.707 7.004-20.707 1.827.304 3.35 1.523 3.35 1.523.914-15.835-3.958-42.936-3.958-42.936 2.436 1.218 3.958-.304 3.958-.304-2.74-1.218-3.045-4.264-3.045-4.264 3.96.305 4.568-3.35 4.568-3.35" fill="#edf7fa"/><path d="M73.72 367s.714-7.7-1.797-13.26c0 0 4.756.323 5.556 12.884 0 0-3.33.387-3.758.374m-23.88-25.97l.03-.237c.017.117.015.207-.03.237m4.454 25.375l-.043-.01.055-.144-.013.156M114.85 28.892c-1.522-12.18 1.83-22.85 1.83-22.85-36.846 15.53-46.6 49.923-46.6 49.923-2.436-5.785-2.74-18.92-2.74-18.92S52.126 62.55 49.386 80.2s2.436 68.364 2.436 68.364-2.435-3.044-7.612-3.653c0 0 5.48 6.1 5.48 19.794 0 0-2.132-1.827-5.786-.914 0 0 5.785 5.176 6.395 14.007 0 0-6.7 4.568-10.354 9.136 0 0-5.786.304-8.83 1.218 0 0 4.873 2.74 5.786 5.177 0 0-14.313 14.617-21.62 26.492 0 0 6.395-3.958 10.963-2.74 0 0-10.05 12.18-13.4 32.278 0 0 4.872-2.435 7.004-1.217 0 0-6.1 12.8-6.395 26.188l-6.7 3.96 5.177 3.654s-3.96 16.443-4.873 25.883c0 0 3.045-3.045 5.48-3.958 0 0 3.35 7.917 7.918 14.007S35.38 329.15 41.47 329.15l.77-.106c-.34 2.1-.722 4.2-1.28 6.252-.08.292-.467.487-.735.3-.705-.497-1.43-.918-2.178-1.3-2-.66-3.24.194-3.24.194 2.004.5 4.392 4.387 4.936 5.93-1.598-.116-2.803.267-4.38 1.24 1.5.197 3.162.975 3.162.975-9.042 3.844-10.443 9.42-13.32 13.32.9-.503 3.8-1.765 3.8-1.765-2.68 2.503-4.1 8.572-4.322 10.57l-.427 4.6c2.397-.834 3.562-.916 5.502-1.38 2.998-.436 11.378-1.585 14.456-1.266l-.485 5.92.15-.002c1.58-.453 2.867-.392 4.277-.544.02-1.632.106-3.262.24-4.887-.094-2.778.25-5.308.818-8.128l.06-.3c1.118-3.85 3.063-6.042 4.326-7.4.42-.448.783-.978 1.095-1.52a15.38 15.38 0 0 0 2.142-3.96c1.252-3.416.715-10.92-1.8-18.246 2.653 3.816 5.07 7.165 6.215 8.3l-.076-9.325s4.872 4.87 9.233 8.547c2.1 1.833 4.7 4.218 6.528 5.167.133.084.253-.802.4.535h-.001c.02 0 .037-.265.055-.254 2.47 1.386 5 2.486 7.4 4.025.255.164.515.244.765.416 1.1.758 3.04 1.6 4.78 2.518l1.647 19.45c1.485-20.44 13.132-40.014 13.132-40.014l-.426-.13c-3.604-1.114-29.975-10.237-45.555-42.813-1.026-2.146 5.786 2.435 5.786 2.435-6.395-15.53-8.832-40.5-8.832-40.5 2.132 1.827 4.264 2.132 4.264 2.132-4.568-12.8-6.395-28.625-6.395-42.937-1.218-77.04 27.254-94.703 27.254-94.703-4.872-1.827-10.05-1.675-10.05-1.675 5.634-13.55 24.36-32.43 24.36-32.43-5.024.305-24.666 5.633-24.666 5.633C87.146 39.558 103.6 28.292 103.6 28.292c-1.218 10.2 2.74 21 2.74 21 35.323-43.698 63.704-41.66 63.704-41.66C172.14 3.26 174.53.27 174.53.27c-38.064 0-59.68 28.62-59.68 28.62m99.848 337.868s-.344-11.04-2.855-16.597c0 0 6.547 4.035 6.5 16.786l-3.655-.2" fill="#cde9ee"/><path d="M44.356 309.983c4.313-42.238 5.486-124.867 5.486-124.867-9.364 18.5-16.9 52.072-16.9 52.072l1.827 7.308-4.1-1.827c-6.607 22.93-2.137 53.626-.656 62.273 4.203 3.327 9.2 4.45 14.354 5.04m-8.834-.912l4.27 19.985c1.142.172 2.427.086 2.427.086 1.048-4.084 1.222-10.404 2.037-18.18-3.002-.352-5.948-.885-8.734-1.892" fill="#abd8d7"/><path d="M178.633 345.467c-.245.07-.432-.04-.533-.207l-1.08.24c6.283-4.573 6.86-9.408 6.86-9.408-4.168 1.88-8.592 2.58-10.744 2.828 14.52-12.587 16.934-35.96 16.934-35.96-5.947 7.3-14.388 13.47-20.91 17.613l.014-.028s-4.37 2.444-8.41 4.347a.46.46 0 0 0-.488.227c-2.075.96-4.01 1.745-5.15 1.936 0 0 3.363 6.2 4.768 9.56l-.275.223s4.865 11.5 6.637 22.64l.432 4.792c.085 1.63.2 2.753.2 2.753 6.433-.952 15.52-.025 15.52-.025-.043 1.048.532 3.564.638 4.02 3.055-.412 6.137-.592 9.22-.618-.04-10.797-.516-28.738-13.636-24.934" fill="#cde9ee"/><path d="M44.02 313.24c-10.088-1.706-19.243-13.3-19.243-13.3 7.356 7.822 16.513 8.87 16.513 8.87 1.208-8.933-6.175-29.378-6.175-29.378 5.468 6.8 8.46 14.686 10.095 21.133l-1.2 12.676" fill="#83bac0"/><path d="M66.914 297.424s7.937 13.988 14.902 20.04c7.518 6.53 14.502 15.758 17.47 21.354 0 0 3.768-8.753 5.824-11.8 0 0-22.267-6.528-38.197-29.595m103.6 27.284c1.104-1.553 2.367-2.996 3.572-4.47 1.975-2.418 4.232-4.766 5.9-7.397-2.862 2.142-6.05 3.997-9.307 5.958-9.456 6.407-16.044 8.22-16.044 8.22 2.055 3.046 5.824 11.8 5.824 11.8 1.797-3.386 5.07-8.103 9.037-12.75.333-.462.703-.905 1.028-1.363" fill="#abd8d7"/><path d="M63.904 89.11l-3.637.133C35.16 90.995 16.706 71.54 16.706 71.54s-1.65 15.187 9.257 28.495S58.98 115.62 58.98 115.62c.72 3.112-.838 10.052-.838 10.052s6.464-7.15 8.106-20.7c1.152-9.494-1.807-15.9-2.343-15.863" fill="#545352"/><path d="M63.904 89.11l-3.637.133C35.16 90.995 16.706 71.54 16.706 71.54s11.47 33.194 49.776 30.57c0 0 1.06-6.14-2.577-13" fill="#6e7979"/><path d="M189.257 89.11l3.636.133c25.107 1.753 43.56-17.703 43.56-17.703s1.65 15.187-9.256 28.495-33.017 15.585-33.017 15.585c-.718 3.112.838 10.052.838 10.052s-6.465-7.15-8.106-20.7c-1.152-9.494 1.808-15.9 2.344-15.863" fill="#545352"/><path d="M189.257 89.11l3.636.133c25.107 1.753 43.56-17.703 43.56-17.703s-11.47 33.194-49.775 30.57c0 0-1.06-6.14 2.577-13" fill="#6e7979"/><g fill="#cde9ee"><path d="M50.8 201.56s-18.047 64.862 0 106.428V201.56m179.696 102.6c-8.907 6.797-18.175 7.227-18.175 7.227-.413-8.88 9.294-28.294 9.294-28.294-2.2 1.304-3.984 2.882-5.445 4.612l-.063-6.515 7.004-5.785-5.633-4.568 7.155-28.777-6.85 4.568s-2.13-40.956-.6-58.618c0 0-8.68-8.68-12.942-12.18l1.724 32.76c3.9 16.163 9.93 49.6 2.416 79.028l.186 18.132s3.744 13 4.962 22.146c0 0 1.218.343 3.045.04l-.138-14c9.4-2.84 14.07-9.783 14.07-9.783"/><path d="M146.068 178.565c0 6.918 4.43 12.526 9.897 12.526s9.898-5.608 9.898-12.526-4.432-12.527-9.898-12.527-9.897 5.608-9.897 12.527"/></g><path d="M146.373 175.22c0 6.81 4.362 12.333 9.745 12.333s9.745-5.522 9.745-12.333-4.363-12.333-9.745-12.333-9.745 5.52-9.745 12.333" fill="#fff"/><path d="M153.53 168.86c-.078.303-.13.618-.13.953 0 1.737 1.132 3.144 2.528 3.144 1.24 0 2.268-1.112 2.482-2.578.796 1.044 1.287 2.45 1.287 4.002 0 3.217-2.096 5.824-4.682 5.824s-4.682-2.607-4.682-5.824c0-2.57 1.34-4.748 3.198-5.52" fill="#474746"/><path d="M98.563 178.565c0 6.918 4.43 12.526 9.898 12.526s9.897-5.608 9.897-12.526-4.432-12.527-9.897-12.527-9.898 5.608-9.898 12.527" fill="#cde9ee"/><path d="M98.87 175.22c0 6.81 4.363 12.333 9.745 12.333s9.745-5.522 9.745-12.333-4.363-12.333-9.745-12.333-9.745 5.52-9.745 12.333" fill="#fff"/><path d="M107.854 168.86c-.078.303-.13.618-.13.953 0 1.737 1.132 3.144 2.528 3.144 1.24 0 2.268-1.112 2.482-2.578.796 1.044 1.287 2.45 1.287 4.002 0 3.217-2.097 5.824-4.682 5.824s-4.682-2.607-4.682-5.824c0-2.57 1.34-4.748 3.198-5.52" fill="#474746"/><path d="M181.728 188.393c-.62 1.87-2.73 2.365-8.738 3.527l-.41.08c-5.887 1.13-16.41.983-22.176.14l-.717-.1c-5.343-.904-5.95-1.595-7.67-4.365-1.775-2.866-2.865-11.28-3.067-12.94l-.01-.084c-.213-1.754-.32-2.632 1.934-3.64 3.03-1.36 16.482-3.257 21.993-3.505 4.35-.192 13.575.414 17.793 1.03.66.098 1.15.186 1.454.267.485.13 2.272.998 2.18 2.898-.118 2.504-1.73 14.178-2.57 16.705h0zm-58.665-13.753l-.01.084c-.2 1.66-1.29 10.075-3.066 12.94-1.718 2.77-2.327 3.46-7.67 4.365l-.717.1c-5.764.842-16.288 1-22.176-.14l-.408-.08c-6.008-1.162-8.117-1.658-8.738-3.527-.84-2.527-2.45-14.2-2.57-16.705-.092-1.9 1.696-2.77 2.18-2.898.302-.08.792-.17 1.453-.267 4.218-.616 13.442-1.222 17.794-1.03 5.512.248 18.962 2.146 21.993 3.505 2.254 1.01 2.148 1.887 1.935 3.64h0zm66.38-11.116c-4.413-.645-12.116-1.376-21.362-.904-12.032.62-22.342 2.29-28.5 3.287l-4.385.68-1.202.163c-1.35.186-2.236.303-2.99.34-.755-.037-1.64-.155-2.99-.34l-1.203-.163c-1.102-.146-2.546-.38-4.385-.68-6.158-.997-16.468-2.668-28.5-3.287-9.246-.472-16.95.26-21.362.904 0 0-4.7.6-8.737 2.303l.768 5.12s4.256-1.013 8.413-1.568c.773 7.22 2.276 16.495 2.276 16.495l.024.287.336 1.417c.856 3.647 1.706 5.792 5.127 7.078 3.36 1.268 11.31 2.443 19.326 2.856 2.98.154 6.365-.03 9.787-.527 5.075-.74 9.666-2.107 11.42-3.404 2.552-1.886 3.917-6.633 4.82-9.773l.27-.926c.32-1.07.597-2.195.865-3.286.386-1.565.783-3.184 1.124-3.742.06-.098.348-.435 1.463-.6.345-.05.733-.076 1.16-.082.426.005.814.032 1.16.082 1.115.164 1.402.5 1.463.6.34.56.738 2.177 1.123 3.742.27 1.09.546 2.215.866 3.286l.27.926c.904 3.14 2.27 7.887 4.82 9.773 1.754 1.297 6.344 2.663 11.42 3.404 3.422.498 6.806.682 9.787.527 8.018-.413 15.966-1.588 19.326-2.856 3.42-1.286 4.27-3.43 5.127-7.078l.335-1.417.024-.287s1.503-9.276 2.276-16.495a97.68 97.68 0 0 1 8.413 1.568l.768-5.12c-4.028-1.704-8.737-2.303-8.737-2.303h0z" fill="#545352"/><path d="M111.516 150.56s-11.008-5.25-17.308 4.498c0 0-.65-9.694 8.24-10.777s9.07 6.278 9.07 6.278m-4.13-14.243s-10.205-4.816-14.854 4.44c0 0-1.52-8.086 5.764-10.038s9.1 5.6 9.1 5.6m43.55 20.185s8.55-4.077 13.442 3.494c0 0 .505-7.528-6.4-8.37s-7.044 4.876-7.044 4.876m6.08-13.483s8.65-1.4 10.132 6.506c0 0 2.87-5.708-2.144-8.73s-7.988 2.224-7.988 2.224" fill="#a0d1de"/><path d="M110.75 227.355s6.04-4.06 9.605-4.618c0 0 .778 7.66 4.32 11.434 0 0 7.646-6.892 15.207-7.382 0 0 1.952 4.2 5.12 5.758l-.018.05c1.144.714 2.545 1.436 3.9 1.737 0 0 4.34-2.626 5.595-7.423 0 0 .418 10.126-5.938 15.645 0 0-4.847-2.365-8.338-6.15-1.05-1.02-2.14-2.21-2.668-3.175 0 0-11.213 7.933-11.623 12.456 0 0-8.094-7.892-10.854-13.972 0 0-5.402 1.705-6.9 2.804 0 0-4.342-7.1-5.224-13.51 0 0 5.222 4.987 7.814 6.348" fill="#b2dce5"/><path d="M131.133 207.454c-.448-.096 11.374.818 22.98.406 0 0 .62-2.214 1.51-3.43 0 0-.194 3.727.85 4.5 0 0-5.808 2.287-11.666 2.27 0 0 6.383-1.065 8.524-2.167 0 0-11.648.648-22.198-1.567" fill="#545352"/></svg>