<svg xmlns="http://www.w3.org/2000/svg" viewBox="0 0 512 512" xmlns:v="https://vecta.io/nano"><path d="M8.5 503.498h494.997V8.5H8.5z" fill="#ffe100"/><path d="M477.895 503.498h25.603V8.5h-25.603z" fill="#ffa800"/><path d="M8.5 503.498h25.603V8.5H8.5z" fill="#fff"/><path d="M503.5 512H8.5a8.5 8.5 0 0 1-8.5-8.5V8.5C0 3.806 3.806 0 8.5 0h495a8.5 8.5 0 0 1 8.5 8.5v495a8.5 8.5 0 0 1-8.5 8.5zM17.002 494.998h477.996V17.002H17.002v477.996zm375.548-25.67c-42.334 0-76.777-34.442-76.777-76.777 0-4.695 3.807-8.5 8.5-8.5s8.5 3.806 8.5 8.5c0 32.96 26.815 59.775 59.775 59.775s59.775-26.815 59.775-59.775-26.815-59.775-59.775-59.775c-42.334 0-76.777-34.442-76.777-76.777s34.442-76.776 76.777-76.776 76.777 34.442 76.777 76.777a8.5 8.5 0 0 1-8.5 8.5c-4.694 0-8.5-3.806-8.5-8.5 0-32.96-26.815-59.775-59.775-59.775S332.776 223.04 332.776 256s26.815 59.775 59.775 59.775c42.334 0 76.777 34.442 76.777 76.777s-34.443 76.776-76.777 76.776zm-179.222 0c-42.334 0-76.777-34.442-76.777-76.777a8.5 8.5 0 0 1 8.5-8.5c4.694 0 8.5 3.806 8.5 8.5 0 32.96 26.814 59.775 59.775 59.775S273.1 425.51 273.1 392.55V187.724a8.5 8.5 0 0 1 8.5-8.5c4.694 0 8.5 3.806 8.5 8.5V392.55c-.002 42.335-34.443 76.778-76.777 76.778z"/></svg>