<svg xmlns="http://www.w3.org/2000/svg" width="50" height="50" viewBox="0 0 512 512" xmlns:v="https://vecta.io/nano"><circle cx="256" cy="256" fill="#f55247" r="256"/><path d="M290.1 375.6c-3.3-1.1-5.4-3.5-7.2-6.4-2.5-4.2-5.2-8.3-7.6-12.6L248 307.9c-.3-.4-.5-.8-.8-1.3-1.5.4-2.9.8-4.4 1.1l-60.1 15.5c-2.4.6-4.7 1.3-7.1 1.3-4.8 0-8.5-2.1-11-6.2-.6-1-1.1-2-1.5-3.2l-55.2-119.4-9.7-21.3c-.8-1.8-1.3-3.7-2-5.6-.1-.3-.3-.5-.4-.8v-2.3c.1-.4.4-.6.5-1a3.89 3.89 0 0 1 2.3-2.4c.9-.4 1.8-.6 2.7-.6l14.4-1.3 19.8-1.5 25.5-2c1.4-.1 2.8-.3 4-.5h4.3c.3.1.5.1.8.3 2 .3 3.5 1.3 4.7 3l3 4.5 75.1 125.6c.3.4.5.9.9 1.4l96.8-23.2c-.4-.5-.5-.9-.8-1.1l-30.9-43.8c-.4-.5-.8-1.1-1-1.8-.8-1.5-.4-2.8 1.1-3.5 1.1-.5 2.3-1 3.5-1.3l17.7-3 23.4-3.9c2-.4 3.9-.6 5.9-.9 1.8-.3 3.4.3 4.9 1.3 1.5 1.1 2.8 2.5 4 3.9l23.9 29.5 12.6 15.5c.4.4.6.9.9 1.3v2c-.8 1.3-2.1 1.6-3.4 2l-42 11.2c-.4.1-.9.3-1.4.4.4.5.5.8.8 1.1l19.2 25.6 19.1 25.8c.5.8 1 1.5 1.4 2.4.8 1.5.4 2.8-1 3.7-.9.6-1.8 1.1-2.8 1.4-3.2 1.3-6.3 2.4-9.5 3.5l-78 28c-6.3 2.3-12.6 4.4-19.1 6.6-1.6.5-3.4.9-5 1.4-1.3.3-2.6.3-4 .3zM163.8 165.7c-4 .4-8.1.8-12.2 1l-39.3 3.4c-.9.1-1.1.4-1 1.3.1.5.3 1 .5 1.4.4.9.8 1.6 1.3 2.5l64.4 133.1c.3.6.6.9 1.3.8.9-.1 1.8-.3 2.5-.5l52.1-12.4c1.8-.4 3.7-.9 5.4-1.3 1.3-.4 1.6-1 1.1-2.3-.3-.6-.5-1.1-.9-1.6l-71.4-123.3c-1.4-2.3-1.4-2.3-3.8-2.1zm96.9 137.4c.3.5.4.8.6 1l21.5 36.9 8.6 14.4c.6 1 1.4 2 2.1 2.9.9.9 2 1.1 3.2.6.5-.3 1-.4 1.5-.5l63.2-21.5 28.8-9.7c.5-.1 1.1-.4 1.6-.6 1-.5 1.1-1 .5-1.9l-1.3-2-30.3-41.6c-.5-.8-1-1.5-1.6-2.3s-1.4-1.1-2.4-.8c-.8.3-1.4.4-2.1.6l-92.4 24c-.5.1-1 .3-1.5.5zm100.4-37.5c.3 0 .5-.1.8-.1l36.5-9c.5-.1 1-.3 1.5-.5 1.1-.5 1.4-1.1.5-2.1-.1-.1-.3-.4-.4-.5l-26.8-34c-.1-.3-.4-.5-.5-.6-.9-1-1.9-1.3-3.3-1l-32.6 5.9c-1.3.3-2.7.4-3.9.8-1.1.3-1.3.8-.8 1.6.3.4.5.9.9 1.3l27.1 37.2c.4.3.6.7 1 1z" fill="#fff"/></svg>