<svg xmlns="http://www.w3.org/2000/svg" viewBox="0 0 512 512" xmlns:v="https://vecta.io/nano"><path d="M512 256c0 36.937-7.826 72.056-21.91 103.77-2.288 5.183-4.765 10.27-7.387 15.266C439.85 456.474 354.408 512 256 512c-103.685 0-192.972-61.64-233.22-150.277a253.59 253.59 0 0 1-16.394-48.661C2.205 294.713 0 275.613 0 256 0 114.615 114.615 0 256 0c115.012 0 212.302 75.84 244.61 180.245a266.14 266.14 0 0 1 2.884 10.073v.01c1.672 6.332 3.114 12.737 4.305 19.247a240.89 240.89 0 0 1 1.494 9.132l.825 6.165a245.62 245.62 0 0 1 1.118 11.18c.502 6.584.763 13.24.763 19.948z" fill="#f2f2f2"/><path d="M367.96 77.614s7.42 7.632 8.7 13.355c0 0 5.3-4.028 1.696-10.387s-10.387-2.968-10.387-2.968zm135.535 112.704c-6.666-3.354-12.727-5.34-17.47-6.5-6.416-1.588-11.6-6.3-13.855-12.528-2.884-7.973-8.255-20.888-18.14-40.458-19.508-38.578-41.127-50.448-55.327-60.416-9.32-6.54-21.567-7.868-28.88-8.014-3.688-.073-7.24-1.42-10.073-3.793-7.45-6.27-22.1-13.636-26.76-10.877-5.726 3.396 0 11.243 8.046 21.2 8.056 9.968 9.76 20.992 15.475 35.83 2.644 6.844 5.83 10.982 8.485 13.448 2.78 2.6 3.688 6.614 2.215 10.104-5.37 12.696-7.168 28.776-4.127 43.645 3.605 17.596 11.87 17.387 11.87 17.387-.846-23.53 11.452-33.708 11.452-33.708 11.233 34.335 36.885 59.988 36.885 59.988-20.773-7.42-36.247-41.336-36.247-41.336s-1.693 1.693-3.177 12.936c-1.484 11.233-15.057 18.014-25.015-6.572-9.968-24.597 2.967-55.547 2.967-55.547-5.726-2.968-17.596-30.312-17.596-34.555 0-4.232-4.67-13.563-10.386-19.3-5.726-5.716-16.96-22.256-3.814-29.884 13.134-7.638 39.215 12.925 39.215 12.925 41.127-1.484 83.52 48.546 90.3 66.35s25.86 53.426 25.86 53.426c5.413 1.64 10.5 3.762 15.214 6.175a266.83 266.83 0 0 1 2.883 10.071zm7.742 45.735l-.606-.293c-13.145-6.363-18.442-19.717-18.442-19.717 3.406-3.406 9.446-5.36 15.6-6.468a240.89 240.89 0 0 1 1.494 9.132l-3.75.72c0 1.296 1.808 3.23 4.577 5.444.46 3.7.825 7.43 1.117 11.18z" fill="#5181a2"/><path d="M133.37 374.66h-20.03s0-45.777-6.677-100.153L75.18 374.66H58.964L27 274.986s-3.72 29.288-4.232 86.737a253.59 253.59 0 0 1-16.394-48.661c1.473-21.264 3.542-44.44 6.322-63.352h26.07l29.727 92.526L99.987 249.7h23.845c-.001 0 9.54 81.554 9.54 124.95zm11.053-91.208l20.668-.318s23.212 69.637 20.987 78.222c0 0 14.945-41.655 18.76-78.222h20.35s-10.812 73.77-43.88 112.564c-12.375 14.517-26.262 14.695-38.8 9.236V393.8s17.177 6.042 26.08-6.678c7.168-10.24.322-27.898-5.938-46.67l-18.23-57z" fill="#ffa600"/><path d="M237.908 365.5l5.405-10.812s37.204 16.534 46.742 0 .318-25.438-18.442-35.296-38.475-22.258-29.9-49.287 54.056-25.12 67.093-12.083l-4.45 10.493s-33.705-14.3-42.926 4.45 15.263 27.664 20.987 30.208 37.52 15.58 34.024 38.793-17.807 37.52-50.558 34.66c-11.768-2.86-18.445-4.767-27.984-11.126zm167.544 1.5c14.054-11.295 20.083-31.4 20.083-54.293 0-35.328-10.167-63.97-50.333-63.97-34.586 0-50.333 28.64-50.333 63.97s11.515 63.97 50.333 63.97c5.622 0 10.72-.7 15.318-2.017l29.905 17.544 7.314-14.315L405.452 367zm-30.25-5.643c-22.507 0-29.184-21.786-29.184-48.65 0-26.875 6.363-48.65 29.184-48.65 23.28 0 29.174 21.776 29.174 48.65-.001 26.864-5.894 48.65-29.174 48.65zm114.886-1.587a250.98 250.98 0 0 1-7.387 15.266h-39.38V250.378h19.717v109.4h27.052z" fill="#5181a2"/></svg>